HIERARCHY
ROOT Hips
{
	OFFSET -3.958830 18.904000 13.208200
	CHANNELS 6 Xposition Yposition Zposition Zrotation Yrotation Xrotation 
	JOINT LHipJoint
	{
		OFFSET 0.000000 0.000000 0.000000
		CHANNELS 3 Zrotation Yrotation Xrotation
		JOINT LeftUpLeg
		{
			OFFSET 1.800000 -1.400000 0.085000
			CHANNELS 3 Zrotation Yrotation Xrotation
			JOINT LeftLeg
			{
				OFFSET 2.215000 -6.000000 0.000000
				CHANNELS 3 Zrotation Yrotation Xrotation
				JOINT LeftFoot
				{
					OFFSET 2.500000 -6.900000 0.000000
					CHANNELS 3 Zrotation Yrotation Xrotation
					JOINT LeftToeBase
					{
						OFFSET 0.200000 -0.500000 1.950000
						CHANNELS 3 Zrotation Yrotation Xrotation
						End Site
						{
							OFFSET 0.000000 0.000000 0.000000
						}
					}
				}
			}
		}
	}
	JOINT RHipJoint
	{
		OFFSET 0.000000 0.000000 0.000000
		CHANNELS 3 Zrotation Yrotation Xrotation
		JOINT RightUpLeg
		{
			OFFSET -1.800000 -1.400000 0.085000
			CHANNELS 3 Zrotation Yrotation Xrotation
			JOINT RightLeg
			{
				OFFSET -2.215000 -6.000000 0.000000
				CHANNELS 3 Zrotation Yrotation Xrotation
				JOINT RightFoot
				{
					OFFSET -2.500000 -6.900000 0.000000
					CHANNELS 3 Zrotation Yrotation Xrotation
					JOINT RightToeBase
					{
						OFFSET -0.200000 -0.500000 1.950000
						CHANNELS 3 Zrotation Yrotation Xrotation
						End Site
						{
							OFFSET 0.000000 0.000000 0.000000
						}
					}
				}
			}
		}
	}
	JOINT LowerBack
	{
		OFFSET 0.000000 0.000000 0.000000
		CHANNELS 3 Zrotation Yrotation Xrotation
		JOINT Spine
		{
			OFFSET -0.087000 1.940000 -0.288900
			CHANNELS 3 Zrotation Yrotation Xrotation
			JOINT Spine1
			{
				OFFSET 0.000000 1.950000 0.060000
				CHANNELS 3 Zrotation Yrotation Xrotation
				JOINT Neck
				{
					OFFSET 0.000000 0.000000 0.000000
					CHANNELS 3 Zrotation Yrotation Xrotation
					JOINT Neck1
					{
						OFFSET 0.000000 1.600000 0.340000
						CHANNELS 3 Zrotation Yrotation Xrotation
						JOINT Head
						{
							OFFSET 0.000000 1.667000 -0.240000
							CHANNELS 3 Zrotation Yrotation Xrotation
							End Site
							{
								OFFSET 0.000000 0.000000 0.000000
							}
						}
					}
				}
				JOINT LeftShoulder
				{
					OFFSET 0.000000 0.000000 0.000000
					CHANNELS 3 Zrotation Yrotation Xrotation
					JOINT LeftArm
					{
						OFFSET 2.700000 1.550000 -0.730000
						CHANNELS 3 Zrotation Yrotation Xrotation
						JOINT LeftForeArm
						{
							OFFSET 5.450000 0.000000 0.000000
							CHANNELS 3 Zrotation Yrotation Xrotation
							JOINT LeftHand
							{
								OFFSET 3.450000 0.000000 0.000000
								CHANNELS 3 Zrotation Yrotation Xrotation
								JOINT LeftHandIndex1
								{
									OFFSET 0.750000 0.000000 0.000000
									CHANNELS 3 Zrotation Yrotation Xrotation
									End Site
									{
										OFFSET 0.000000 0.000000 0.000000
									}
								}
							}
						}
					}
				}
				JOINT RightShoulder
				{
					OFFSET 0.000000 0.000000 0.000000
					CHANNELS 3 Zrotation Yrotation Xrotation
					JOINT RightArm
					{
						OFFSET -2.700000 1.550000 -0.730000
						CHANNELS 3 Zrotation Yrotation Xrotation
						JOINT RightForeArm
						{
							OFFSET -5.450000 0.000000 0.000000
							CHANNELS 3 Zrotation Yrotation Xrotation
							JOINT RightHand
							{
								OFFSET -3.450000 0.000000 0.000000
								CHANNELS 3 Zrotation Yrotation Xrotation
								JOINT RightHandIndex1
								{
									OFFSET -0.750000 0.000000 0.000000
									CHANNELS 3 Zrotation Yrotation Xrotation
									End Site
									{
										OFFSET 0.000000 0.000000 0.000000
									}
								}
							}
						}
					}
				}
			}
		}
	}
}
MOTION
Frames: 9
Frame Time: 0.016667
-0.003740 17.551840 -1.949670 -22.569886 -9.507920 5.364254 -14.719791 10.249658 1.586465 14.105993 -0.863772 -6.720019 -4.079802 3.331079 -0.796317 -0.284285 3.683575 3.467425 0.397280 0.353190 0.138680 19.279569 -8.737322 6.950984 -51.059414 -1.015177 -31.739891 119.313543 -30.939224 4.980485 -2.136812 -9.964679 1.045461 0.362170 0.262390 0.137840 -5.676705 1.830102 -9.083278 43.086437 -3.313272 6.155279 -11.356167 1.607890 11.856223 4.822518 1.570409 -14.870464 6.669769 -24.446394 16.535677 -5.238360 -20.630810 -7.402990 -12.477995 -20.630591 9.920881 7.058247 3.469855 0.187537 12.275427 8.968515 -0.235209 -4.340746 2.949443 -0.086140 0.188440 -0.193040 0.201670 1.327337 24.034333 7.715282 0.480396 13.550817 -14.636895 -54.790611 18.323399 -14.279711 2.598890 -2.203934 -0.041120 0.177940 -0.083990 0.095090 
-0.000420 17.550190 -1.961980 -22.383826 -9.594854 5.433351 -14.723681 10.215135 1.599910 13.975487 -0.899482 -6.813017 -4.304051 3.311992 -0.961782 -0.269159 3.675822 3.463465 0.415530 0.379710 0.135880 19.281944 -8.732395 6.956978 -51.304382 -1.202585 -31.564780 119.524783 -30.855486 4.824615 -2.131065 -9.961465 1.039984 0.374190 0.263010 0.155650 -5.676641 1.858825 -9.096150 42.734004 -3.446147 6.134235 -11.264319 1.493421 12.198055 4.910905 1.420098 -14.991041 6.626189 -24.542797 16.166139 -5.306810 -20.678290 -7.150590 -12.260813 -20.309091 9.850558 7.005854 4.117714 0.293498 13.061590 7.625750 -0.210524 -4.328332 3.009033 -0.114850 0.198920 -0.198550 0.208370 0.970777 23.956194 7.877938 -0.564730 13.014069 -14.489458 -53.259277 15.788194 -12.839039 2.647133 -2.259841 -0.016070 0.154710 -0.090350 0.107220 
-0.002070 17.546520 -1.974420 -22.240007 -9.883876 5.657804 -14.727881 10.185208 1.599536 13.847022 -0.954093 -6.990651 -4.329520 3.275800 -1.038578 -0.305121 3.679115 3.462882 0.423130 0.387770 0.150050 19.285392 -8.744370 6.955729 -51.580594 -1.419365 -31.865253 119.715698 -31.195064 4.851628 -2.134834 -9.995988 1.026356 0.395350 0.275520 0.156580 -5.680323 1.916022 -9.094579 42.216173 -3.413072 6.125064 -11.004585 1.440586 12.480586 4.966766 1.512261 -15.133236 7.020212 -24.569020 15.557707 -5.635320 -20.350360 -7.238970 -11.871886 -20.024301 9.852491 7.913129 4.696255 0.652209 11.264810 7.267827 -0.393336 -4.361623 2.950675 -0.116970 0.215670 -0.206560 0.202970 0.493984 23.621198 8.001142 -1.271722 12.530316 -14.173213 -51.663964 13.535245 -11.549864 2.666433 -2.271978 -0.030250 0.173110 -0.082980 0.096950 
-0.006370 17.543120 -1.988420 -22.141901 -10.214059 6.165996 -14.734696 10.142433 1.590586 13.686975 -1.043571 -7.425204 -4.399446 3.250645 -1.059382 -0.374942 3.693471 3.475858 0.394480 0.340670 0.167690 19.290753 -8.711675 6.997770 -51.689364 -1.612923 -32.341909 119.672982 -30.806226 4.677426 -2.111174 -9.970068 1.040602 0.397900 0.302290 0.137580 -5.687181 1.952244 -9.111366 41.654359 -3.315664 5.992953 -10.671395 1.514203 12.507121 4.897093 1.652704 -15.338344 7.488878 -24.750072 14.923587 -6.759790 -19.792190 -6.713410 -11.568370 -19.874497 10.104487 8.436456 6.344170 1.178289 10.333551 5.336977 -0.491478 -4.354732 2.878013 -0.094820 0.243620 -0.228280 0.186570 0.272716 23.380373 8.004221 -1.872947 12.362546 -13.918091 -50.681420 11.057912 -10.340315 2.677524 -2.251124 -0.089670 0.215620 -0.064130 0.063810 
-0.003950 17.538310 -2.000330 -22.187001 -10.538522 6.795567 -14.739880 10.089698 1.579211 13.554853 -1.138417 -7.877540 -4.271056 3.172575 -1.237890 -0.390306 3.656728 3.494474 0.380320 0.328040 0.164720 19.297382 -8.680275 7.035248 -51.583908 -1.671449 -32.668713 119.276087 -30.113709 4.499772 -2.080793 -9.937872 1.050911 0.399800 0.316770 0.137000 -5.702175 1.999964 -9.127875 41.421739 -3.286921 5.602205 -10.522685 1.600784 12.693137 4.865228 1.555431 -15.596291 7.628425 -24.870243 14.291382 -7.515730 -19.397370 -5.853540 -11.083627 -19.757238 10.315214 8.461779 7.380270 1.324491 10.052497 5.014615 -0.493159 -4.383312 2.869187 -0.117650 0.270240 -0.248190 0.182830 -0.143067 23.337225 8.065584 -2.946839 12.092649 -13.523086 -48.990200 8.233396 -8.925639 2.726141 -2.270442 -0.099250 0.211890 -0.061460 0.059950 
-0.008690 17.536730 -2.010040 -22.420561 -10.669922 7.133762 -14.748197 10.117697 1.617836 13.816853 -1.196940 -8.111162 -4.227794 3.141546 -1.485869 -0.361204 3.667167 3.492851 0.360810 0.292310 0.168310 19.279449 -8.692619 6.964281 -51.461260 -1.794265 -32.664528 119.329587 -30.939027 4.662598 -2.096828 -10.019456 1.027972 0.366510 0.310500 0.155000 -5.662723 1.896422 -9.125174 41.240268 -3.293022 5.496628 -10.044565 1.483443 12.575044 4.722341 1.494503 -15.857580 7.514400 -24.816891 14.397491 -8.096040 -19.041740 -4.999970 -10.334641 -19.722463 10.553965 7.748106 7.710002 1.196663 9.834854 5.490605 -0.478471 -4.413326 2.867411 -0.121960 0.276380 -0.246190 0.177120 -0.660643 23.208066 8.145254 -3.959665 11.767709 -13.089741 -47.227414 5.789388 -7.650630 2.784302 -2.269599 -0.089380 0.179160 -0.063590 0.056490 
-0.009010 17.542240 -2.021490 -22.509795 -11.011762 7.046408 -14.761878 10.186837 1.658439 13.916673 -1.170147 -7.885496 -4.159818 3.139630 -1.678579 -0.355965 3.691995 3.479544 0.370080 0.296130 0.199310 19.250083 -8.693305 6.901733 -51.179083 -1.690767 -32.490462 118.847154 -31.564113 5.095596 -2.121628 -10.076326 1.004558 0.364710 0.284450 0.154380 -5.599629 1.733323 -9.122659 41.175979 -3.610280 5.845365 -10.132159 1.294908 12.613525 4.951635 1.422815 -16.060590 7.200459 -24.181480 14.857147 -8.454950 -18.268930 -5.231820 -10.022696 -19.508491 10.597513 7.890182 8.191293 1.169475 9.430226 6.026738 -0.507883 -4.423176 2.834514 -0.099940 0.263600 -0.226200 0.168510 -1.451673 23.094795 8.286165 -4.965433 11.677863 -12.524248 -44.811461 3.514779 -6.487416 2.833943 -2.240305 -0.091740 0.170670 -0.075850 0.039490 
-0.006240 17.550060 -2.031090 -22.945546 -11.542979 7.076765 -14.782605 10.257411 1.715614 14.452887 -1.119389 -7.627060 -4.271644 3.197726 -2.000836 -0.306809 3.757124 3.463485 0.350200 0.279540 0.178770 19.210334 -8.632089 6.850793 -50.279114 -1.410112 -32.445784 118.040246 -31.583537 5.477164 -2.125657 -10.090330 1.013325 0.341720 0.283930 0.133670 -5.520474 1.480856 -9.132838 41.608353 -4.070811 6.287282 -10.220152 1.200932 12.364433 5.026324 1.035244 -16.068859 6.235350 -23.438163 15.737714 -7.782030 -18.078530 -5.332420 -9.288706 -18.968777 10.384816 7.214192 7.539052 0.727929 9.550405 7.860605 -0.453500 -4.458323 2.792821 -0.090200 0.246060 -0.223930 0.172990 -2.300018 22.763210 8.445456 -6.692270 11.390877 -11.585561 -41.405656 1.758186 -5.310899 2.885762 -2.168836 -0.095790 0.174430 -0.079870 0.047750 
0.001020 17.553190 -2.040110 -23.356884 -12.101197 7.370964 -14.803785 10.305115 1.759837 14.670173 -1.119180 -7.515374 -4.055078 3.159953 -2.454040 -0.281216 3.779403 3.453588 0.350070 0.280960 0.182740 19.175273 -8.569000 6.827392 -49.196057 -1.173821 -32.581809 117.125246 -31.206767 5.726833 -2.128028 -10.083661 1.016381 0.333470 0.271460 0.134200 -5.448729 1.284693 -9.147705 42.080687 -4.496228 6.588667 -10.566950 1.210535 12.167929 5.260750 0.895480 -16.149332 5.911121 -23.157370 15.962751 -7.798650 -17.742780 -5.449510 -9.022081 -18.435102 10.143478 7.520853 7.662843 0.570772 10.007961 8.284438 -0.398522 -4.474152 2.784414 -0.086900 0.239520 -0.214360 0.171040 -3.051777 22.377939 8.766214 -8.007553 10.613544 -10.785045 -38.805816 0.663098 -4.530563 2.918518 -2.123038 -0.087590 0.165450 -0.085140 0.045920 
